# Blender v3.5.0 OBJ File: ''
# www.blender.org
mtllib needle.mtl
o 円錐
v 0.000000 -0.307181 0.313346
v -0.061131 -0.307181 0.307325
v -0.119912 -0.307181 0.289494
v -0.174086 -0.307181 0.260538
v -0.221569 -0.307181 0.221569
v -0.260538 -0.307181 0.174086
v -0.289494 -0.307181 0.119912
v -0.307325 -0.307181 0.061131
v -0.313346 -0.307181 0.000000
v -0.307325 -0.307181 -0.061131
v -0.289494 -0.307181 -0.119912
v -0.260538 -0.307181 -0.174086
v -0.221569 -0.307181 -0.221569
v -0.174086 -0.307181 -0.260538
v -0.119912 -0.307181 -0.289494
v -0.061131 -0.307181 -0.307325
v 0.000000 -0.307181 -0.313346
v 0.061131 -0.307181 -0.307325
v 0.119912 -0.307181 -0.289494
v 0.174086 -0.307181 -0.260538
v 0.221569 -0.307181 -0.221569
v 0.260538 -0.307181 -0.174086
v 0.289494 -0.307181 -0.119912
v 0.307325 -0.307181 -0.061131
v 0.313346 -0.307181 0.000000
v 0.307325 -0.307181 0.061131
v 0.289494 -0.307181 0.119912
v 0.260538 -0.307181 0.174086
v 0.221569 -0.307181 0.221569
v 0.174086 -0.307181 0.260538
v 0.119912 -0.307181 0.289494
v 0.061131 -0.307181 0.307325
v 0.000000 0.692819 0.000000
vt 0.483340 0.535154
vt 0.709218 0.945847
vt 0.453603 0.555344
vt 0.429623 0.576906
vt 0.709218 0.004335
vt 0.709218 0.471059
vt 0.673280 0.003729
vt 0.634656 0.007447
vt 0.594833 0.015346
vt 0.555339 0.027122
vt 0.517692 0.042324
vt 0.483340 0.060367
vt 0.453603 0.080557
vt 0.429623 0.102118
vt 0.996271 0.004335
vt 0.996271 0.471059
vt 0.960333 0.003729
vt 0.921709 0.007447
vt 0.881886 0.015346
vt 0.842392 0.027122
vt 0.804745 0.042324
vt 0.770393 0.060367
vt 0.740656 0.080557
vt 0.716676 0.102118
vt 0.283324 0.430229
vt 0.283324 0.896953
vt 0.247386 0.429623
vt 0.208762 0.433341
vt 0.168938 0.441240
vt 0.129445 0.453016
vt 0.091798 0.468218
vt 0.057446 0.486261
vt 0.027709 0.506451
vt 0.003729 0.528012
vt 0.709218 0.479123
vt 0.673280 0.478517
vt 0.634656 0.482234
vt 0.594833 0.490133
vt 0.555339 0.501910
vt 0.422165 0.192341
vt 0.233553 0.422165
vt 0.003729 0.233553
vt 0.517692 0.517112
vt 0.003729 0.192341
vt 0.011769 0.151920
vt 0.027540 0.113845
vt 0.050437 0.079578
vt 0.079578 0.050437
vt 0.113845 0.027540
vt 0.151920 0.011769
vt 0.192341 0.003729
vt 0.233553 0.003729
vt 0.273974 0.011769
vt 0.312049 0.027540
vt 0.346316 0.050437
vt 0.375458 0.079578
vt 0.398354 0.113845
vt 0.414125 0.151920
vt 0.422165 0.233553
vt 0.414125 0.273974
vt 0.398354 0.312049
vt 0.375457 0.346316
vt 0.346316 0.375458
vt 0.312049 0.398354
vt 0.273974 0.414125
vt 0.192341 0.422165
vt 0.151920 0.414125
vt 0.113845 0.398354
vt 0.079578 0.375457
vt 0.050437 0.346316
vt 0.027540 0.312049
vt 0.011769 0.273974
vn -0.0936 0.2977 0.9501
vn -0.2771 0.2977 0.9136
vn -0.4500 0.2977 0.8419
vn -0.6056 0.2977 0.7380
vn -0.7380 0.2977 0.6056
vn -0.8419 0.2977 0.4500
vn -0.9136 0.2977 0.2771
vn -0.9501 0.2977 0.0936
vn -0.9501 0.2977 -0.0936
vn -0.9136 0.2977 -0.2771
vn -0.8419 0.2977 -0.4500
vn -0.7380 0.2977 -0.6056
vn -0.6056 0.2977 -0.7380
vn -0.4500 0.2977 -0.8419
vn -0.2771 0.2977 -0.9136
vn -0.0936 0.2977 -0.9501
vn 0.0936 0.2977 -0.9501
vn 0.2771 0.2977 -0.9136
vn 0.4500 0.2977 -0.8419
vn 0.6056 0.2977 -0.7380
vn 0.7380 0.2977 -0.6056
vn 0.8419 0.2977 -0.4500
vn 0.9136 0.2977 -0.2771
vn 0.9501 0.2977 -0.0936
vn 0.9501 0.2977 0.0936
vn 0.9136 0.2977 0.2771
vn 0.8419 0.2977 0.4500
vn 0.7380 0.2977 0.6056
vn 0.6056 0.2977 0.7380
vn 0.4500 0.2977 0.8419
vn 0.0000 -1.0000 0.0000
vn 0.2771 0.2977 0.9136
vn 0.0936 0.2977 0.9501
usemtl マテリアル
s off
f 1/1/1 33/2/1 2/3/1
f 2/3/2 33/2/2 3/4/2
f 3/5/3 33/6/3 4/7/3
f 4/7/4 33/6/4 5/8/4
f 5/8/5 33/6/5 6/9/5
f 6/9/6 33/6/6 7/10/6
f 7/10/7 33/6/7 8/11/7
f 8/11/8 33/6/8 9/12/8
f 9/12/9 33/6/9 10/13/9
f 10/13/10 33/6/10 11/14/10
f 11/15/11 33/16/11 12/17/11
f 12/17/12 33/16/12 13/18/12
f 13/18/13 33/16/13 14/19/13
f 14/19/14 33/16/14 15/20/14
f 15/20/15 33/16/15 16/21/15
f 16/21/16 33/16/16 17/22/16
f 17/22/17 33/16/17 18/23/17
f 18/23/18 33/16/18 19/24/18
f 19/25/19 33/26/19 20/27/19
f 20/27/20 33/26/20 21/28/20
f 21/28/21 33/26/21 22/29/21
f 22/29/22 33/26/22 23/30/22
f 23/30/23 33/26/23 24/31/23
f 24/31/24 33/26/24 25/32/24
f 25/32/25 33/26/25 26/33/25
f 26/33/26 33/26/26 27/34/26
f 27/35/27 33/2/27 28/36/27
f 28/36/28 33/2/28 29/37/28
f 29/37/29 33/2/29 30/38/29
f 30/38/30 33/2/30 31/39/30
f 16/40/31 24/41/31 32/42/31
f 31/39/32 33/2/32 32/43/32
f 32/43/33 33/2/33 1/1/33
f 32/42/31 1/44/31 2/45/31
f 2/45/31 3/46/31 4/47/31
f 4/47/31 5/48/31 6/49/31
f 6/49/31 7/50/31 8/51/31
f 8/51/31 9/52/31 10/53/31
f 10/53/31 11/54/31 12/55/31
f 12/55/31 13/56/31 14/57/31
f 14/57/31 15/58/31 16/40/31
f 16/40/31 17/59/31 18/60/31
f 18/60/31 19/61/31 20/62/31
f 20/62/31 21/63/31 22/64/31
f 22/64/31 23/65/31 24/41/31
f 24/41/31 25/66/31 26/67/31
f 26/67/31 27/68/31 28/69/31
f 28/69/31 29/70/31 30/71/31
f 30/71/31 31/72/31 32/42/31
f 32/42/31 2/45/31 8/51/31
f 2/45/31 4/47/31 8/51/31
f 4/47/31 6/49/31 8/51/31
f 8/51/31 10/53/31 16/40/31
f 10/53/31 12/55/31 16/40/31
f 12/55/31 14/57/31 16/40/31
f 16/40/31 18/60/31 24/41/31
f 18/60/31 20/62/31 24/41/31
f 20/62/31 22/64/31 24/41/31
f 24/41/31 26/67/31 32/42/31
f 26/67/31 28/69/31 32/42/31
f 28/69/31 30/71/31 32/42/31
f 32/42/31 8/51/31 16/40/31
