# Blender 3.5.0
# www.blender.org
mtllib background.mtl
o Cube
v 80.000000 170.000000 -0.100020
v 80.000000 -170.000000 -0.099994
v 80.000000 170.000000 0.099980
v 80.000000 -170.000000 0.100006
v -80.000000 170.000000 -0.100006
v -80.000000 -170.000000 -0.099980
v -80.000000 170.000000 0.099994
v -80.000000 -170.000000 0.100020
vn -0.0000 1.0000 -0.0000
vn -0.0000 -0.0000 1.0000
vn -1.0000 -0.0000 -0.0000
vn -0.0000 -1.0000 -0.0000
vn 1.0000 -0.0000 -0.0000
vn -0.0000 -0.0000 -1.0000
vt 0.963506 0.476540
vt 0.950774 0.997109
vt 0.476540 0.997109
vt 0.950774 0.002891
vt 0.963506 0.470758
vt 0.476540 0.002891
vt 0.962922 0.476540
vt 0.470758 0.997109
vt 0.950189 0.997109
vt 0.470758 0.002891
vt 0.962922 0.470758
vt 0.950189 0.002891
vt 0.963506 0.944407
vt 0.956555 0.997109
vt 0.944407 0.997109
vt 0.963506 0.002891
vt 0.944407 0.002891
vt 0.956555 0.002891
vt 0.962922 0.944407
vt 0.002891 0.997109
vt 0.957140 0.997109
vt 0.957140 0.002891
vt 0.002891 0.002891
vt 0.962922 0.002891
s 0
usemtl Material.001
f 5/13/1 3/7/1 1/1/1
f 3/8/2 8/23/2 4/10/2
f 7/21/3 6/18/3 8/22/3
f 2/5/4 8/24/4 6/16/4
f 1/2/5 4/12/5 2/4/5
f 5/15/6 2/6/6 6/17/6
f 5/13/1 7/19/1 3/7/1
f 3/8/2 7/20/2 8/23/2
f 7/21/3 5/14/3 6/18/3
f 2/5/4 4/11/4 8/24/4
f 1/2/5 3/9/5 4/12/5
f 5/15/6 1/3/6 2/6/6
