# Blender v3.5.0 OBJ File: ''
# www.blender.org
mtllib background.mtl
o Cube
v 80.000000 170.000000 -0.100000
v 80.000000 -170.000000 -0.100000
v 80.000000 170.000000 0.100000
v 80.000000 -170.000000 0.100000
v -80.000000 170.000000 -0.100000
v -80.000000 -170.000000 -0.100000
v -80.000000 170.000000 0.100000
v -80.000000 -170.000000 0.100000
vt 0.963506 0.476540
vt 0.963506 0.944407
vt 0.962922 0.944407
vt 0.962922 0.476540
vt 0.470758 0.002891
vt 0.470758 0.997109
vt 0.002891 0.997109
vt 0.002891 0.002891
vt 0.957140 0.002891
vt 0.957140 0.997109
vt 0.956555 0.997109
vt 0.956555 0.002891
vt 0.963506 0.002891
vt 0.963506 0.470758
vt 0.962922 0.470758
vt 0.962922 0.002891
vt 0.950774 0.002891
vt 0.950774 0.997109
vt 0.950189 0.997109
vt 0.950189 0.002891
vt 0.944407 0.002891
vt 0.944407 0.997109
vt 0.476540 0.997109
vt 0.476540 0.002891
vn 0.0000 1.0000 0.0000
vn 0.0000 0.0000 1.0000
vn -1.0000 0.0000 0.0000
vn 0.0000 -1.0000 0.0000
vn 1.0000 0.0000 0.0000
vn 0.0000 0.0000 -1.0000
usemtl Material
s off
f 1/1/1 5/2/1 7/3/1 3/4/1
f 4/5/2 3/6/2 7/7/2 8/8/2
f 8/9/3 7/10/3 5/11/3 6/12/3
f 6/13/4 2/14/4 4/15/4 8/16/4
f 2/17/5 1/18/5 3/19/5 4/20/5
f 6/21/6 5/22/6 1/23/6 2/24/6
