# Blender v3.5.0 OBJ File: ''
# www.blender.org
mtllib player.mtl
o 円柱.001_円柱.003
v 0.236394 1.724499 -0.526902
v -0.236394 1.724499 -0.526902
v 0.236394 0.997337 -0.110152
v -0.236394 0.997337 -0.110152
v 0.236394 0.997337 -0.943652
v -0.236394 0.997337 -0.943652
v 1.000000 -1.000000 -1.000000
v 1.000000 1.000000 -1.000000
v 1.000000 -1.000000 1.000000
v 1.000000 1.000000 1.000000
v -1.000000 -1.000000 -1.000000
v -1.000000 1.000000 -1.000000
v -1.000000 -1.000000 1.000000
v -1.000000 1.000000 1.000000
v 0.236394 1.724499 0.531618
v -0.236394 1.724499 0.531618
v 0.236394 0.997337 0.948368
v -0.236394 0.997337 0.948368
v 0.236394 0.997337 0.114868
v -0.236394 0.997337 0.114868
vt 0.733178 0.768795
vt 0.631898 0.650081
vt 0.733178 0.650081
vt 0.621758 0.638411
vt 0.518947 0.519696
vt 0.621758 0.519696
vt 0.005835 0.829465
vt 0.094871 0.778060
vt 0.094871 0.880870
vt 0.846128 0.768795
vt 0.744848 0.650081
vt 0.846128 0.650081
vt 0.195577 0.778060
vt 0.195577 0.880870
vt 0.106541 0.829465
vt 0.250721 0.519696
vt 0.005835 0.766390
vt 0.005835 0.519696
vt 0.752529 0.005835
vt 0.522564 0.508026
vt 0.522564 0.005835
vt 0.507278 0.519696
vt 0.262391 0.766390
vt 0.262391 0.519696
vt 0.764199 0.508026
vt 0.994165 0.005835
vt 0.994165 0.508026
vt 0.252529 0.508026
vt 0.005835 0.005835
vt 0.252529 0.005835
vt 0.264199 0.005835
vt 0.510894 0.508026
vt 0.264199 0.508026
vt 0.849187 0.638411
vt 0.747907 0.519696
vt 0.849188 0.519696
vt 0.736237 0.638411
vt 0.633427 0.519696
vt 0.736237 0.519696
vt 0.307953 0.829465
vt 0.396989 0.778060
vt 0.396989 0.880870
vt 0.620228 0.768795
vt 0.518948 0.650081
vt 0.620228 0.650081
vt 0.296283 0.880870
vt 0.207247 0.829465
vt 0.296283 0.778060
vt 0.631898 0.768795
vt 0.518947 0.638411
vt 0.744848 0.768795
vt 0.250721 0.766390
vt 0.752529 0.508026
vt 0.507278 0.766390
vt 0.764199 0.005835
vt 0.005835 0.508026
vt 0.510894 0.005835
vt 0.747907 0.638411
vt 0.633427 0.638411
vt 0.518948 0.768795
vn 0.0000 0.4972 0.8676
vn 0.0000 -1.0000 -0.0000
vn -1.0000 -0.0000 0.0000
vn 0.0000 0.4972 -0.8676
vn 1.0000 0.0000 -0.0000
vn 0.0000 0.0000 1.0000
vn 0.0000 0.0000 -1.0000
vn -0.0000 1.0000 -0.0000
usemtl マテリアル
s off
f 2/1/1 3/2/1 1/3/1
f 4/4/2 5/5/2 3/6/2
f 4/7/3 2/8/3 6/9/3
f 6/10/4 1/11/4 5/12/4
f 1/13/5 3/14/5 5/15/5
f 8/16/5 9/17/5 7/18/5
f 10/19/6 13/20/6 9/21/6
f 14/22/3 11/23/3 13/24/3
f 12/25/7 7/26/7 11/27/7
f 13/28/2 7/29/2 9/30/2
f 10/31/8 12/32/8 14/33/8
f 16/34/1 17/35/1 15/36/1
f 18/37/2 19/38/2 17/39/2
f 18/40/3 16/41/3 20/42/3
f 20/43/4 15/44/4 19/45/4
f 15/46/5 17/47/5 19/48/5
f 2/1/1 4/49/1 3/2/1
f 4/4/2 6/50/2 5/5/2
f 6/10/4 2/51/4 1/11/4
f 8/16/5 10/52/5 9/17/5
f 10/19/6 14/53/6 13/20/6
f 14/22/3 12/54/3 11/23/3
f 12/25/7 8/55/7 7/26/7
f 13/28/2 11/56/2 7/29/2
f 10/31/8 8/57/8 12/32/8
f 16/34/1 18/58/1 17/35/1
f 18/37/2 20/59/2 19/38/2
f 20/43/4 16/60/4 15/44/4
