# Blender v3.5.0 OBJ File: ''
# www.blender.org
mtllib player.mtl
o 円柱
v 7.384985 6.355005 1.259622
v 9.384985 6.355005 1.259622
v 7.384985 4.855005 0.393596
v 9.384985 4.855005 0.393596
v 7.384985 4.855005 2.125648
v 9.384985 4.855005 2.125648
v -8.877255 2.330052 -3.100667
v -8.877255 -2.519705 -3.100667
v 5.861946 2.330052 -3.100666
v 5.861946 -2.519706 -3.100666
v -8.877255 2.330052 3.087614
v -8.877255 -2.519705 3.087614
v 5.861946 2.330052 3.087614
v 5.861946 -2.519706 3.087614
v 5.394925 -4.902241 2.808762
v 5.394925 -2.353898 2.808762
v 3.001566 -4.902241 2.808762
v 3.001566 -2.353898 2.808762
v 5.394925 -4.902241 0.777184
v 5.394925 -2.353898 0.777184
v 3.001566 -4.902241 0.777184
v 3.001566 -2.353898 0.777184
v 10.895587 1.013698 2.156512
v 10.895587 4.892093 2.156512
v 5.823014 1.013698 2.156512
v 5.823014 4.892093 2.156512
v 10.895587 1.013698 -2.149287
v 10.895587 4.892093 -2.149287
v 5.823014 1.013698 -2.149288
v 5.823015 4.892093 -2.149288
v 7.384985 6.355006 -1.193061
v 9.384985 6.355006 -1.193061
v 7.384985 4.855006 -2.059087
v 9.384985 4.855006 -2.059087
v 7.384985 4.855006 -0.327035
v 9.384985 4.855006 -0.327035
v 5.394925 -4.902241 -0.796470
v 5.394925 -2.353898 -0.796470
v 3.001566 -4.902241 -0.796470
v 3.001566 -2.353898 -0.796470
v 5.394925 -4.902241 -2.828047
v 5.394925 -2.353898 -2.828047
v 3.001566 -4.902241 -2.828047
v 3.001566 -2.353898 -2.828047
v -6.213048 -4.902241 -0.796470
v -6.213049 -2.353897 -0.796470
v -8.606408 -4.902241 -0.796471
v -8.606408 -2.353897 -0.796471
v -6.213048 -4.902241 -2.828048
v -6.213049 -2.353897 -2.828048
v -8.606408 -4.902241 -2.828048
v -8.606408 -2.353897 -2.828048
v -6.213048 -4.902241 2.849252
v -6.213049 -2.353897 2.849252
v -8.606408 -4.902241 2.849252
v -8.606408 -2.353897 2.849252
v -6.213048 -4.902241 0.817674
v -6.213049 -2.353897 0.817674
v -8.606408 -4.902241 0.817674
v -8.606408 -2.353897 0.817674
v -15.546389 -0.257794 0.580182
v -8.556247 0.506898 0.580182
v -15.748606 0.822804 0.580181
v -8.758464 1.587496 0.580182
v -15.546389 -0.257794 -0.509710
v -8.556247 0.506898 -0.509710
v -15.748606 0.822804 -0.509710
v -8.758464 1.587496 -0.509710
vt 0.983843 0.388701
vt 0.935254 0.327537
vt 0.983843 0.327537
vt 0.864189 0.972137
vt 0.811219 0.910977
vt 0.864189 0.910977
vt 0.538464 0.979135
vt 0.492600 0.952650
vt 0.538464 0.926165
vt 0.983843 0.308041
vt 0.935254 0.246877
vt 0.983843 0.246877
vt 0.218494 0.963767
vt 0.264358 0.937282
vt 0.264358 0.990252
vt 0.407746 0.009748
vt 0.218494 0.460451
vt 0.218495 0.009748
vt 0.218494 0.669197
vt 0.366780 0.479946
vt 0.366780 0.669197
vt 0.427241 0.460505
vt 0.574594 0.009748
vt 0.574594 0.460505
vt 0.198999 0.009748
vt 0.009748 0.460472
vt 0.009748 0.009748
vt 0.594090 0.460505
vt 0.741443 0.009748
vt 0.741443 0.460505
vt 0.009748 0.669219
vt 0.158033 0.479968
vt 0.158033 0.669219
vt 0.578417 0.829234
vt 0.651612 0.906662
vt 0.578417 0.906662
vt 0.835225 0.577414
vt 0.897355 0.655331
vt 0.835225 0.655331
vt 0.822284 0.891481
vt 0.895478 0.814053
vt 0.895478 0.891481
vt 0.009748 0.839891
vt 0.071878 0.917808
vt 0.009748 0.917808
vt 0.977103 0.717130
vt 0.914973 0.790319
vt 0.914973 0.717130
vt 0.977103 0.902498
vt 0.914973 0.975684
vt 0.914973 0.902498
vt 0.578417 0.809738
vt 0.696257 0.654608
vt 0.696257 0.809738
vt 0.009748 0.820395
vt 0.128333 0.688714
vt 0.128333 0.820395
vt 0.545081 0.654615
vt 0.427241 0.809746
vt 0.427241 0.654615
vt 0.218494 0.820374
vt 0.337080 0.688693
vt 0.337080 0.820374
vt 0.558922 0.480001
vt 0.427241 0.635120
vt 0.427241 0.480001
vt 0.710098 0.480001
vt 0.578417 0.635112
vt 0.578417 0.480001
vt 0.405164 0.749857
vt 0.356575 0.688693
vt 0.405164 0.688693
vt 0.631387 0.987317
vt 0.578417 0.926157
vt 0.631387 0.926157
vt 0.696747 0.979127
vt 0.650883 0.952642
vt 0.696747 0.926157
vt 0.196417 0.749879
vt 0.147828 0.688714
vt 0.196417 0.688714
vt 0.427241 0.952650
vt 0.473105 0.926165
vt 0.473105 0.979135
vt 0.822284 0.717130
vt 0.895478 0.794558
vt 0.822284 0.794558
vt 0.835225 0.480001
vt 0.897355 0.557918
vt 0.835225 0.557918
vt 0.427241 0.906669
vt 0.500435 0.829241
vt 0.500435 0.906669
vt 0.218494 0.839869
vt 0.280625 0.917787
vt 0.218494 0.917787
vt 0.977103 0.809814
vt 0.914973 0.883003
vt 0.914973 0.809814
vt 0.978980 0.480001
vt 0.916850 0.553186
vt 0.916850 0.480001
vt 0.729594 0.717130
vt 0.802788 0.794558
vt 0.729594 0.794558
vt 0.853628 0.246877
vt 0.915759 0.324794
vt 0.853628 0.324794
vt 0.760939 0.324305
vt 0.834133 0.246877
vt 0.834133 0.324305
vt 0.091373 0.839891
vt 0.153503 0.917808
vt 0.091373 0.917808
vt 0.928700 0.102432
vt 0.866570 0.175621
vt 0.866570 0.102432
vt 0.791724 0.910977
vt 0.729594 0.984162
vt 0.729594 0.910977
vt 0.760939 0.343800
vt 0.834133 0.421228
vt 0.760939 0.421228
vt 0.853629 0.344290
vt 0.915759 0.422208
vt 0.853629 0.422208
vt 0.729594 0.891481
vt 0.802788 0.814053
vt 0.802788 0.891481
vt 0.300120 0.839869
vt 0.362250 0.917787
vt 0.300120 0.917787
vt 0.928700 0.009748
vt 0.866570 0.082937
vt 0.866570 0.009748
vt 0.978980 0.572681
vt 0.916850 0.645867
vt 0.916850 0.572681
vt 0.762902 0.482601
vt 0.729594 0.695034
vt 0.729594 0.480001
vt 0.815729 0.694112
vt 0.782398 0.480001
vt 0.815729 0.480001
vt 0.760939 0.012348
vt 0.794247 0.224781
vt 0.760939 0.227381
vt 0.847074 0.223789
vt 0.813743 0.009748
vt 0.847074 0.009748
vt 0.180995 0.802706
vt 0.147828 0.769374
vt 0.180995 0.769374
vt 0.389742 0.802684
vt 0.356575 0.769353
vt 0.389742 0.769353
vt 0.935254 0.388701
vt 0.811219 0.972137
vt 0.935254 0.308041
vt 0.407746 0.460451
vt 0.218494 0.479946
vt 0.427241 0.009748
vt 0.198999 0.460472
vt 0.594090 0.009748
vt 0.009748 0.479968
vt 0.651612 0.829234
vt 0.897355 0.577414
vt 0.822284 0.814053
vt 0.071878 0.839891
vt 0.977103 0.790319
vt 0.977103 0.975684
vt 0.578417 0.654608
vt 0.009748 0.688714
vt 0.545081 0.809746
vt 0.218494 0.688693
vt 0.558922 0.635120
vt 0.710098 0.635112
vt 0.356575 0.749857
vt 0.578417 0.987317
vt 0.147828 0.749879
vt 0.895478 0.717130
vt 0.897355 0.480001
vt 0.427241 0.829241
vt 0.280625 0.839869
vt 0.977103 0.883003
vt 0.978980 0.553186
vt 0.802788 0.717130
vt 0.915759 0.246877
vt 0.760939 0.246877
vt 0.153503 0.839891
vt 0.928700 0.175621
vt 0.791724 0.984162
vt 0.834133 0.343800
vt 0.915759 0.344290
vt 0.729594 0.814053
vt 0.362250 0.839869
vt 0.928700 0.082937
vt 0.978980 0.645867
vt 0.762902 0.697634
vt 0.782398 0.694112
vt 0.794247 0.009748
vt 0.813743 0.223789
vt 0.147828 0.802706
vt 0.356575 0.802684
vn 0.0000 0.5000 -0.8660
vn 0.0000 -1.0000 0.0000
vn 1.0000 0.0000 0.0000
vn -0.0000 0.5000 0.8660
vn -1.0000 0.0000 0.0000
vn -0.0000 1.0000 0.0000
vn -0.0000 0.0000 1.0000
vn 0.0000 0.0000 -1.0000
vn -0.1087 0.9941 0.0000
vn 0.1087 -0.9941 0.0000
vn -0.9829 -0.1839 0.0000
vn 0.9829 0.1839 0.0000
usemtl Material
s off
f 2/1/1 3/2/1 1/3/1
f 4/4/2 5/5/2 3/6/2
f 4/7/3 2/8/3 6/9/3
f 6/10/4 1/11/4 5/12/4
f 1/13/5 3/14/5 5/15/5
f 11/16/6 9/17/6 7/18/6
f 9/19/3 14/20/3 10/21/3
f 13/22/7 12/23/7 14/24/7
f 8/25/2 14/26/2 12/27/2
f 7/28/8 10/29/8 8/30/8
f 11/31/5 8/32/5 12/33/5
f 16/34/7 17/35/7 15/36/7
f 18/37/5 21/38/5 17/39/5
f 21/40/8 20/41/8 19/42/8
f 20/43/3 15/44/3 19/45/3
f 21/46/2 15/47/2 17/48/2
f 18/49/6 20/50/6 22/51/6
f 24/52/7 25/53/7 23/54/7
f 26/55/5 29/56/5 25/57/5
f 30/58/8 27/59/8 29/60/8
f 28/61/3 23/62/3 27/63/3
f 29/64/2 23/65/2 25/66/2
f 26/67/6 28/68/6 30/69/6
f 32/70/1 33/71/1 31/72/1
f 34/73/2 35/74/2 33/75/2
f 34/76/3 32/77/3 36/78/3
f 36/79/4 31/80/4 35/81/4
f 31/82/5 33/83/5 35/84/5
f 38/85/7 39/86/7 37/87/7
f 40/88/5 43/89/5 39/90/5
f 43/91/8 42/92/8 41/93/8
f 42/94/3 37/95/3 41/96/3
f 43/97/2 37/98/2 39/99/2
f 40/100/6 42/101/6 44/102/6
f 46/103/7 47/104/7 45/105/7
f 48/106/5 51/107/5 47/108/5
f 51/109/8 50/110/8 49/111/8
f 50/112/3 45/113/3 49/114/3
f 51/115/2 45/116/2 47/117/2
f 48/118/6 50/119/6 52/120/6
f 54/121/7 55/122/7 53/123/7
f 56/124/5 59/125/5 55/126/5
f 59/127/8 58/128/8 57/129/8
f 58/130/3 53/131/3 57/132/3
f 59/133/2 53/134/2 55/135/2
f 56/136/6 58/137/6 60/138/6
f 61/139/7 64/140/7 63/141/7
f 64/142/9 67/143/9 63/144/9
f 68/145/8 65/146/8 67/147/8
f 66/148/10 61/149/10 65/150/10
f 67/151/11 61/152/11 63/153/11
f 64/154/12 66/155/12 68/156/12
f 2/1/1 4/157/1 3/2/1
f 4/4/2 6/158/2 5/5/2
f 6/10/4 2/159/4 1/11/4
f 11/16/6 13/160/6 9/17/6
f 9/19/3 13/161/3 14/20/3
f 13/22/7 11/162/7 12/23/7
f 8/25/2 10/163/2 14/26/2
f 7/28/8 9/164/8 10/29/8
f 11/31/5 7/165/5 8/32/5
f 16/34/7 18/166/7 17/35/7
f 18/37/5 22/167/5 21/38/5
f 21/40/8 22/168/8 20/41/8
f 20/43/3 16/169/3 15/44/3
f 21/46/2 19/170/2 15/47/2
f 18/49/6 16/171/6 20/50/6
f 24/52/7 26/172/7 25/53/7
f 26/55/5 30/173/5 29/56/5
f 30/58/8 28/174/8 27/59/8
f 28/61/3 24/175/3 23/62/3
f 29/64/2 27/176/2 23/65/2
f 26/67/6 24/177/6 28/68/6
f 32/70/1 34/178/1 33/71/1
f 34/73/2 36/179/2 35/74/2
f 36/79/4 32/180/4 31/80/4
f 38/85/7 40/181/7 39/86/7
f 40/88/5 44/182/5 43/89/5
f 43/91/8 44/183/8 42/92/8
f 42/94/3 38/184/3 37/95/3
f 43/97/2 41/185/2 37/98/2
f 40/100/6 38/186/6 42/101/6
f 46/103/7 48/187/7 47/104/7
f 48/106/5 52/188/5 51/107/5
f 51/109/8 52/189/8 50/110/8
f 50/112/3 46/190/3 45/113/3
f 51/115/2 49/191/2 45/116/2
f 48/118/6 46/192/6 50/119/6
f 54/121/7 56/193/7 55/122/7
f 56/124/5 60/194/5 59/125/5
f 59/127/8 60/195/8 58/128/8
f 58/130/3 54/196/3 53/131/3
f 59/133/2 57/197/2 53/134/2
f 56/136/6 54/198/6 58/137/6
f 61/139/7 62/199/7 64/140/7
f 64/142/9 68/200/9 67/143/9
f 68/145/8 66/201/8 65/146/8
f 66/148/10 62/202/10 61/149/10
f 67/151/11 65/203/11 61/152/11
f 64/154/12 62/204/12 66/155/12
